{"accessors":[{"bufferView":0,"byteOffset":0,"componentType":5126,"count":1714,"max":[0.031933,0.038081,0.146682],"min":[0.000473,-0.200974,0.045523],"normalized":false,"type":"VEC3"},{"bufferView":1,"byteOffset":0,"componentType":5126,"count":1714,"max":[1,0.993274,0.999994,1],"min":[-0.999903,-0.993277,-1,-1],"normalized":false,"type":"VEC4"},{"bufferView":2,"byteOffset":0,"componentType":5126,"count":1714,"max":[0.99983,0.998598,0.999999],"min":[-0.99983,-0.999187,-0.999999],"normalized":false,"type":"VEC3"},{"bufferView":3,"byteOffset":0,"componentType":5126,"count":1714,"max":[0.988231,0.987535],"min":[0.001953,0.001953],"normalized":false,"type":"VEC2"},{"bufferView":4,"byteOffset":0,"componentType":5125,"count":5424,"max":[1596],"min":[0],"normalized":false,"type":"SCALAR"},{"bufferView":5,"byteOffset":0,"componentType":5126,"count":82,"max":[0.028366,0.14919,0.078412],"min":[0.007749,0.127624,0.014216],"normalized":false,"type":"VEC3"},{"bufferView":6,"byteOffset":0,"componentType":5126,"count":82,"max":[0.243662,0.988878,0.479771,-1],"min":[-0.210576,0.85197,-0.510091,-1],"normalized":false,"type":"VEC4"},{"bufferView":7,"byteOffset":0,"componentType":5126,"count":82,"max":[0.470694,0.486056,0.999844],"min":[-0.473874,-0.492378,-0.999844],"normalized":false,"type":"VEC3"},{"bufferView":8,"byteOffset":0,"componentType":5126,"count":82,"max":[0.789497,0.890272],"min":[0.369691,0.84632],"normalized":false,"type":"VEC2"},{"bufferView":9,"byteOffset":0,"componentType":5125,"count":384,"max":[81],"min":[0],"normalized":false,"type":"SCALAR"},{"bufferView":10,"byteOffset":0,"componentType":5126,"count":4620,"max":[0.055394,0.159491,0.538751],"min":[-0.019335,0.020128,0.013597],"normalized":false,"type":"VEC3"},{"bufferView":11,"byteOffset":0,"componentType":5126,"count":4620,"max":[0.99983,0.99997,0.999983,-1],"min":[-0.99983,-0.999986,-0.999844,-1],"normalized":false,"type":"VEC4"},{"bufferView":12,"byteOffset":0,"componentType":5126,"count":4620,"max":[0.999971,0.999873,0.99999],"min":[-0.999976,-0.999935,-0.999948],"normalized":false,"type":"VEC3"},{"bufferView":13,"byteOffset":0,"componentType":5126,"count":4620,"max":[0.997343,0.994542],"min":[0.001953,0.001953],"normalized":false,"type":"VEC2"},{"bufferView":14,"byteOffset":0,"componentType":5125,"count":13590,"max":[3919],"min":[0],"normalized":false,"type":"SCALAR"},{"bufferView":15,"byteOffset":0,"componentType":5126,"count":15347,"max":[0.043186,0.10585,0.337999],"min":[-0.011902,-0.124136,-0.412054],"normalized":false,"type":"VEC3"},{"bufferView":16,"byteOffset":0,"componentType":5126,"count":15347,"max":[0.999998,0.999931,0.999986,-1],"min":[-0.999999,-0.999846,-0.999902,-1],"normalized":false,"type":"VEC4"},{"bufferView":17,"byteOffset":0,"componentType":5126,"count":15347,"max":[0.999998,0.999979,0.99999],"min":[-0.999998,-0.999843,-0.99998],"normalized":false,"type":"VEC3"},{"bufferView":18,"byteOffset":0,"componentType":5126,"count":15347,"max":[0.997955,0.998047],"min":[0.001953,0.001953],"normalized":false,"type":"VEC2"},{"bufferView":19,"byteOffset":0,"componentType":5125,"count":37344,"max":[14826],"min":[0],"normalized":false,"type":"SCALAR"},{"bufferView":20,"byteOffset":0,"componentType":5126,"count":360,"max":[0.034738,0.082991,0.074686],"min":[-0.024553,0.049874,0.004107],"normalized":false,"type":"VEC3"},{"bufferView":21,"byteOffset":0,"componentType":5126,"count":360,"max":[0.999829,0.99983,0.999512,-1],"min":[-0.999897,-0.999675,-0.999843,-1],"normalized":false,"type":"VEC4"},{"bufferView":22,"byteOffset":0,"componentType":5126,"count":360,"max":[0.99983,0.999674,0.999965],"min":[-0.99983,-0.999676,-0.999844],"normalized":false,"type":"VEC3"},{"bufferView":23,"byteOffset":0,"componentType":5126,"count":360,"max":[0.995838,0.983743],"min":[0.09758,0.001953],"normalized":false,"type":"VEC2"},{"bufferView":24,"byteOffset":0,"componentType":5125,"count":810,"max":[353],"min":[0],"normalized":false,"type":"SCALAR"}],"asset":{"generator":"Godot Engine v4.0.3.stable.official@5222a99f5d38cd5346254cefed8f65315bca4fcb","version":"2.0"},"bufferViews":[{"buffer":0,"byteLength":20568,"byteOffset":0},{"buffer":0,"byteLength":27424,"byteOffset":20568},{"buffer":0,"byteLength":20568,"byteOffset":47992},{"buffer":0,"byteLength":13712,"byteOffset":68560},{"buffer":0,"byteLength":21696,"byteOffset":82272},{"buffer":0,"byteLength":984,"byteOffset":103968},{"buffer":0,"byteLength":1312,"byteOffset":104952},{"buffer":0,"byteLength":984,"byteOffset":106264},{"buffer":0,"byteLength":656,"byteOffset":107248},{"buffer":0,"byteLength":1536,"byteOffset":107904},{"buffer":0,"byteLength":55440,"byteOffset":109440},{"buffer":0,"byteLength":73920,"byteOffset":164880},{"buffer":0,"byteLength":55440,"byteOffset":238800},{"buffer":0,"byteLength":36960,"byteOffset":294240},{"buffer":0,"byteLength":54360,"byteOffset":331200},{"buffer":0,"byteLength":184164,"byteOffset":385560},{"buffer":0,"byteLength":245552,"byteOffset":569724},{"buffer":0,"byteLength":184164,"byteOffset":815276},{"buffer":0,"byteLength":122776,"byteOffset":999440},{"buffer":0,"byteLength":149376,"byteOffset":1122216},{"buffer":0,"byteLength":4320,"byteOffset":1271592},{"buffer":0,"byteLength":5760,"byteOffset":1275912},{"buffer":0,"byteLength":4320,"byteOffset":1281672},{"buffer":0,"byteLength":2880,"byteOffset":1285992},{"buffer":0,"byteLength":3240,"byteOffset":1288872}],"buffers":[{"byteLength":1292112,"uri":"pp_19_vit0.bin"}],"images":[{"uri":"textures%2FObject026_low__0_albedo.png"},{"uri":"textures%2FObject026_low__0_orm.png"},{"uri":"textures%2FObject026_low__0_normal.png"},{"uri":"textures%2FMaterial_25_albedo.png"},{"uri":"textures%2FMaterial_25_orm.png"},{"uri":"textures%2FMaterial_25_normal.png"}],"materials":[{"doubleSided":true,"extensions":{},"name":"Object026_low__0","normalTexture":{"index":2,"scale":1},"occlusionTexture":{"index":1},"pbrMetallicRoughness":{"baseColorFactor":[0.99999988079071,0.99999988079071,0.99999988079071,1],"baseColorTexture":{"index":0},"metallicFactor":1,"metallicRoughnessTexture":{"index":1},"roughnessFactor":1}},{"doubleSided":true,"extensions":{},"name":"Material_25","normalTexture":{"index":5,"scale":1},"occlusionTexture":{"index":4},"pbrMetallicRoughness":{"baseColorFactor":[0.99999988079071,0.99999988079071,0.99999988079071,1],"baseColorTexture":{"index":3},"metallicFactor":1,"metallicRoughnessTexture":{"index":4},"roughnessFactor":1}}],"meshes":[{"extras":{"targetNames":[]},"primitives":[{"attributes":{"NORMAL":2,"POSITION":0,"TANGENT":1,"TEXCOORD_0":3},"indices":4,"material":0,"mode":4}]},{"extras":{"targetNames":[]},"primitives":[{"attributes":{"NORMAL":7,"POSITION":5,"TANGENT":6,"TEXCOORD_0":8},"indices":9,"material":1,"mode":4}]},{"extras":{"targetNames":[]},"primitives":[{"attributes":{"NORMAL":12,"POSITION":10,"TANGENT":11,"TEXCOORD_0":13},"indices":14,"material":1,"mode":4},{"attributes":{"NORMAL":17,"POSITION":15,"TANGENT":16,"TEXCOORD_0":18},"indices":19,"material":0,"mode":4}]},{"extras":{"targetNames":[]},"primitives":[{"attributes":{"NORMAL":22,"POSITION":20,"TANGENT":21,"TEXCOORD_0":23},"indices":24,"material":0,"mode":4}]}],"nodes":[{"children":[1],"extensions":{},"name":"pp-19 vit"},{"children":[2],"extensions":{},"name":"Model"},{"children":[3,5,7,9],"extensions":{},"name":"RootNode"},{"children":[4],"extensions":{},"name":"MAGZINE"},{"extensions":{},"mesh":0,"name":"MAG"},{"children":[6],"extensions":{},"name":"LENS"},{"extensions":{},"mesh":1,"name":"GLASS"},{"children":[8],"extensions":{},"name":"WEAPON"},{"extensions":{},"mesh":2,"name":"WEAPON_1"},{"children":[10],"extensions":{},"name":"ejection_part"},{"extensions":{},"mesh":3,"name":"ejection_part_001"}],"samplers":[{"magFilter":9729,"minFilter":9987,"wrapS":10497,"wrapT":10497}],"scene":0,"scenes":[{"nodes":[0]}],"textures":[{"sampler":0,"source":0},{"sampler":0,"source":1},{"sampler":0,"source":2},{"sampler":0,"source":3},{"sampler":0,"source":4},{"sampler":0,"source":5}]}